<svg xmlns="http://www.w3.org/2000/svg" width="256" height="256" fill="none" stroke="#fff" viewBox="-2.4 -2.4 28.8 28.8"><rect id="SVGRepo_bgCarrier" width="28.8" height="28.8" x="-2.4" y="-2.4" fill="#fff" stroke-width="0" rx="14.4"/><g id="SVGRepo_iconCarrier" stroke="#000" stroke-linecap="round" stroke-linejoin="round" stroke-width="2.4"><path d="M8 18c-2.828 0-4.243 0-5.121-.879C2 16.243 2 14.828 2 12s0-4.243.879-5.121C3.757 6 5.172 6 8 6s4.243 0 5.121.879C14 7.757 14 9.172 14 12"/><path d="M10 12c0 2.828 0 4.243.879 5.121C11.757 18 13.172 18 16 18s4.243 0 5.121-.879C22 16.243 22 14.828 22 12s0-4.243-.879-5.121C20.243 6 18.828 6 16 6" opacity=".5"/></g></svg>